<svg width="282" height="437" viewBox="0 0 282 437" fill="none" xmlns="http://www.w3.org/2000/svg">
<rect x="0.5" y="0.5" width="273" height="381" rx="12.5" fill="black" stroke="#C8C8C8"/>
<path d="M27.08 61V38.824H40.296L39.752 42.568H32.328V48.456H38.792V52.2H32.328V61H27.08ZM48.8128 43.464C51.4154 43.464 53.4528 44.264 54.9248 45.864C56.3968 47.4427 57.1328 49.6613 57.1328 52.52C57.1328 54.3333 56.7914 55.9227 56.1088 57.288C55.4474 58.632 54.4874 59.6773 53.2288 60.424C51.9914 61.1707 50.5194 61.544 48.8128 61.544C46.2314 61.544 44.1941 60.7547 42.7008 59.176C41.2288 57.576 40.4928 55.3467 40.4928 52.488C40.4928 50.6747 40.8234 49.096 41.4848 47.752C42.1674 46.3867 43.1274 45.3307 44.3648 44.584C45.6234 43.8373 47.1061 43.464 48.8128 43.464ZM48.8128 47.176C47.7888 47.176 47.0208 47.6133 46.5088 48.488C45.9968 49.3413 45.7408 50.6747 45.7408 52.488C45.7408 54.344 45.9861 55.6987 46.4768 56.552C46.9888 57.4053 47.7674 57.832 48.8128 57.832C49.8368 57.832 50.6048 57.4053 51.1168 56.552C51.6288 55.6773 51.8848 54.3333 51.8848 52.52C51.8848 50.664 51.6288 49.3093 51.1168 48.456C50.6261 47.6027 49.8581 47.176 48.8128 47.176ZM69.3563 43.528C69.9749 43.528 70.5403 43.6027 71.0523 43.752L70.2523 48.648C69.6123 48.4987 69.1003 48.424 68.7163 48.424C67.7136 48.424 66.9456 48.776 66.4123 49.48C65.9003 50.1627 65.4949 51.1973 65.1963 52.584V61H60.1403V44.008H64.5563L64.9723 47.304C65.3563 46.1307 65.9323 45.2133 66.7003 44.552C67.4896 43.8693 68.3749 43.528 69.3563 43.528ZM94.0818 56.072C94.0818 56.712 94.1671 57.1813 94.3378 57.48C94.5298 57.7787 94.8284 58.0027 95.2338 58.152L94.1778 61.448C93.1324 61.3627 92.2791 61.1387 91.6178 60.776C90.9564 60.392 90.4444 59.7947 90.0818 58.984C88.9724 60.6907 87.2658 61.544 84.9618 61.544C83.2764 61.544 81.9324 61.0533 80.9298 60.072C79.9271 59.0907 79.4258 57.8107 79.4258 56.232C79.4258 54.376 80.1084 52.9573 81.4738 51.976C82.8391 50.9947 84.8124 50.504 87.3938 50.504H89.1218V49.768C89.1218 48.7653 88.9084 48.0827 88.4818 47.72C88.0551 47.336 87.3084 47.144 86.2418 47.144C85.6871 47.144 85.0151 47.2293 84.2258 47.4C83.4364 47.5493 82.6258 47.7627 81.7938 48.04L80.6418 44.712C81.7084 44.3067 82.7964 43.9973 83.9058 43.784C85.0364 43.5707 86.0818 43.464 87.0417 43.464C89.4738 43.464 91.2551 43.9653 92.3858 44.968C93.5164 45.9707 94.0818 47.4747 94.0818 49.48V56.072ZM86.4338 57.928C87.5858 57.928 88.4818 57.384 89.1218 56.296V53.288H87.8738C86.7218 53.288 85.8578 53.4907 85.2818 53.896C84.7271 54.3013 84.4498 54.9307 84.4498 55.784C84.4498 56.4667 84.6204 57 84.9618 57.384C85.3244 57.7467 85.8151 57.928 86.4338 57.928ZM105.469 43.464C106.642 43.464 107.698 43.6347 108.637 43.976C109.576 44.3173 110.461 44.84 111.293 45.544L109.117 48.552C108.05 47.7413 106.973 47.336 105.885 47.336C104.754 47.336 103.901 47.752 103.325 48.584C102.749 49.416 102.461 50.76 102.461 52.616C102.461 54.408 102.749 55.6773 103.325 56.424C103.901 57.1707 104.733 57.544 105.821 57.544C106.397 57.544 106.92 57.4587 107.389 57.288C107.858 57.096 108.424 56.7973 109.085 56.392L111.293 59.528C109.608 60.872 107.698 61.544 105.565 61.544C103.837 61.544 102.344 61.1813 101.085 60.456C99.8263 59.7093 98.8557 58.6747 98.173 57.352C97.4903 56.008 97.149 54.44 97.149 52.648C97.149 50.856 97.4903 49.2667 98.173 47.88C98.8557 46.4933 99.8263 45.416 101.085 44.648C102.344 43.8587 103.805 43.464 105.469 43.464ZM120.157 43.464C121.33 43.464 122.386 43.6347 123.325 43.976C124.263 44.3173 125.149 44.84 125.981 45.544L123.805 48.552C122.738 47.7413 121.661 47.336 120.573 47.336C119.442 47.336 118.589 47.752 118.013 48.584C117.437 49.416 117.149 50.76 117.149 52.616C117.149 54.408 117.437 55.6773 118.013 56.424C118.589 57.1707 119.421 57.544 120.509 57.544C121.085 57.544 121.607 57.4587 122.077 57.288C122.546 57.096 123.111 56.7973 123.773 56.392L125.981 59.528C124.295 60.872 122.386 61.544 120.253 61.544C118.525 61.544 117.031 61.1813 115.773 60.456C114.514 59.7093 113.543 58.6747 112.861 57.352C112.178 56.008 111.837 54.44 111.837 52.648C111.837 50.856 112.178 49.2667 112.861 47.88C113.543 46.4933 114.514 45.416 115.773 44.648C117.031 43.8587 118.493 43.464 120.157 43.464ZM142.3 52.168C142.3 52.872 142.268 53.48 142.204 53.992H131.676C131.847 55.4213 132.252 56.424 132.892 57C133.532 57.576 134.417 57.864 135.548 57.864C136.231 57.864 136.892 57.7467 137.532 57.512C138.172 57.256 138.865 56.872 139.612 56.36L141.692 59.176C139.708 60.7547 137.5 61.544 135.068 61.544C132.316 61.544 130.204 60.7333 128.732 59.112C127.26 57.4907 126.524 55.3147 126.524 52.584C126.524 50.856 126.833 49.3093 127.452 47.944C128.071 46.5573 128.977 45.4693 130.172 44.68C131.367 43.8693 132.796 43.464 134.46 43.464C136.913 43.464 138.833 44.232 140.22 45.768C141.607 47.304 142.3 49.4373 142.3 52.168ZM137.34 50.728C137.297 48.1253 136.38 46.824 134.588 46.824C133.713 46.824 133.031 47.144 132.54 47.784C132.071 48.424 131.783 49.48 131.676 50.952H137.34V50.728ZM151.124 43.464C152.34 43.464 153.482 43.6453 154.548 44.008C155.615 44.3707 156.554 44.8827 157.364 45.544L155.508 48.392C154.122 47.5173 152.724 47.08 151.316 47.08C150.655 47.08 150.143 47.1973 149.78 47.432C149.439 47.6453 149.268 47.9547 149.268 48.36C149.268 48.68 149.343 48.9467 149.492 49.16C149.663 49.352 149.994 49.5547 150.484 49.768C150.975 49.9813 151.732 50.2373 152.756 50.536C154.527 51.048 155.839 51.72 156.692 52.552C157.567 53.3627 158.004 54.4933 158.004 55.944C158.004 57.096 157.674 58.0987 157.012 58.952C156.351 59.784 155.444 60.424 154.292 60.872C153.14 61.32 151.86 61.544 150.452 61.544C149.023 61.544 147.69 61.32 146.452 60.872C145.236 60.424 144.202 59.8053 143.348 59.016L145.812 56.264C147.242 57.3733 148.746 57.928 150.324 57.928C151.092 57.928 151.69 57.7893 152.116 57.512C152.564 57.2347 152.788 56.84 152.788 56.328C152.788 55.9227 152.703 55.6027 152.532 55.368C152.362 55.1333 152.031 54.92 151.54 54.728C151.05 54.5147 150.271 54.2587 149.204 53.96C147.519 53.4693 146.26 52.7867 145.428 51.912C144.596 51.0373 144.18 49.9493 144.18 48.648C144.18 47.6667 144.458 46.792 145.012 46.024C145.588 45.2347 146.399 44.616 147.444 44.168C148.511 43.6987 149.738 43.464 151.124 43.464ZM166.374 43.464C167.59 43.464 168.732 43.6453 169.798 44.008C170.865 44.3707 171.804 44.8827 172.614 45.544L170.758 48.392C169.372 47.5173 167.974 47.08 166.566 47.08C165.905 47.08 165.393 47.1973 165.03 47.432C164.689 47.6453 164.518 47.9547 164.518 48.36C164.518 48.68 164.593 48.9467 164.742 49.16C164.913 49.352 165.244 49.5547 165.734 49.768C166.225 49.9813 166.982 50.2373 168.006 50.536C169.777 51.048 171.089 51.72 171.942 52.552C172.817 53.3627 173.254 54.4933 173.254 55.944C173.254 57.096 172.924 58.0987 172.262 58.952C171.601 59.784 170.694 60.424 169.542 60.872C168.39 61.32 167.11 61.544 165.702 61.544C164.273 61.544 162.94 61.32 161.702 60.872C160.486 60.424 159.452 59.8053 158.598 59.016L161.062 56.264C162.492 57.3733 163.996 57.928 165.574 57.928C166.342 57.928 166.94 57.7893 167.366 57.512C167.814 57.2347 168.038 56.84 168.038 56.328C168.038 55.9227 167.953 55.6027 167.782 55.368C167.612 55.1333 167.281 54.92 166.79 54.728C166.3 54.5147 165.521 54.2587 164.454 53.96C162.769 53.4693 161.51 52.7867 160.678 51.912C159.846 51.0373 159.43 49.9493 159.43 48.648C159.43 47.6667 159.708 46.792 160.262 46.024C160.838 45.2347 161.649 44.616 162.694 44.168C163.761 43.6987 164.988 43.464 166.374 43.464ZM37.64 98.2C37.0213 98.6267 36.296 98.9573 35.464 99.192C34.6533 99.4267 33.8427 99.544 33.032 99.544C29.32 99.5227 27.464 97.4747 27.464 93.4V85.528H25.064V82.008H27.464V78.328L32.52 77.752V82.008H36.424L35.88 85.528H32.52V93.336C32.52 94.1253 32.648 94.6907 32.904 95.032C33.16 95.3733 33.5653 95.544 34.12 95.544C34.696 95.544 35.304 95.3627 35.944 95L37.64 98.2ZM46.1253 81.464C48.7279 81.464 50.7653 82.264 52.2373 83.864C53.7093 85.4427 54.4453 87.6613 54.4453 90.52C54.4453 92.3333 54.1039 93.9227 53.4213 95.288C52.7599 96.632 51.7999 97.6773 50.5413 98.424C49.3039 99.1707 47.8319 99.544 46.1253 99.544C43.5439 99.544 41.5066 98.7547 40.0133 97.176C38.5413 95.576 37.8053 93.3467 37.8053 90.488C37.8053 88.6747 38.1359 87.096 38.7973 85.752C39.4799 84.3867 40.4399 83.3307 41.6773 82.584C42.9359 81.8373 44.4186 81.464 46.1253 81.464ZM46.1253 85.176C45.1013 85.176 44.3333 85.6133 43.8213 86.488C43.3093 87.3413 43.0533 88.6747 43.0533 90.488C43.0533 92.344 43.2986 93.6987 43.7893 94.552C44.3013 95.4053 45.0799 95.832 46.1253 95.832C47.1493 95.832 47.9173 95.4053 48.4293 94.552C48.9413 93.6773 49.1973 92.3333 49.1973 90.52C49.1973 88.664 48.9413 87.3093 48.4293 86.456C47.9386 85.6027 47.1706 85.176 46.1253 85.176ZM83.8305 81.464C85.1745 81.464 86.2518 81.9227 87.0625 82.84C87.8732 83.736 88.2785 84.984 88.2785 86.584V99H83.2225V87.448C83.2225 85.9333 82.7425 85.176 81.7825 85.176C81.2492 85.176 80.7798 85.3573 80.3745 85.72C79.9692 86.0827 79.5745 86.6373 79.1905 87.384V99H74.1345V87.448C74.1345 85.9333 73.6545 85.176 72.6945 85.176C72.1825 85.176 71.7132 85.368 71.2865 85.752C70.8812 86.1147 70.4865 86.6587 70.1025 87.384V99H65.0465V82.008H69.4625L69.8145 83.992C70.4758 83.1387 71.2012 82.5093 71.9905 82.104C72.8012 81.6773 73.7185 81.464 74.7425 81.464C75.7025 81.464 76.5238 81.6987 77.2065 82.168C77.9105 82.6373 78.4225 83.2987 78.7425 84.152C79.4252 83.2347 80.1718 82.5627 80.9825 82.136C81.8145 81.688 82.7638 81.464 83.8305 81.464ZM99.4378 81.464C102.04 81.464 104.078 82.264 105.55 83.864C107.022 85.4427 107.758 87.6613 107.758 90.52C107.758 92.3333 107.416 93.9227 106.734 95.288C106.072 96.632 105.112 97.6773 103.854 98.424C102.616 99.1707 101.144 99.544 99.4378 99.544C96.8564 99.544 94.8191 98.7547 93.3258 97.176C91.8538 95.576 91.1178 93.3467 91.1178 90.488C91.1178 88.6747 91.4484 87.096 92.1098 85.752C92.7924 84.3867 93.7524 83.3307 94.9898 82.584C96.2484 81.8373 97.7311 81.464 99.4378 81.464ZM99.4378 85.176C98.4138 85.176 97.6458 85.6133 97.1338 86.488C96.6218 87.3413 96.3658 88.6747 96.3658 90.488C96.3658 92.344 96.6111 93.6987 97.1018 94.552C97.6138 95.4053 98.3924 95.832 99.4378 95.832C100.462 95.832 101.23 95.4053 101.742 94.552C102.254 93.6773 102.51 92.3333 102.51 90.52C102.51 88.664 102.254 87.3093 101.742 86.456C101.251 85.6027 100.483 85.176 99.4378 85.176ZM119.981 81.528C120.6 81.528 121.165 81.6027 121.677 81.752L120.877 86.648C120.237 86.4987 119.725 86.424 119.341 86.424C118.339 86.424 117.571 86.776 117.037 87.48C116.525 88.1627 116.12 89.1973 115.821 90.584V99H110.765V82.008H115.181L115.597 85.304C115.981 84.1307 116.557 83.2133 117.325 82.552C118.115 81.8693 119 81.528 119.981 81.528ZM137.456 90.168C137.456 90.872 137.424 91.48 137.36 91.992H126.832C127.003 93.4213 127.408 94.424 128.048 95C128.688 95.576 129.574 95.864 130.704 95.864C131.387 95.864 132.048 95.7467 132.688 95.512C133.328 95.256 134.022 94.872 134.768 94.36L136.848 97.176C134.864 98.7547 132.656 99.544 130.224 99.544C127.472 99.544 125.36 98.7333 123.888 97.112C122.416 95.4907 121.68 93.3147 121.68 90.584C121.68 88.856 121.99 87.3093 122.608 85.944C123.227 84.5573 124.134 83.4693 125.328 82.68C126.523 81.8693 127.952 81.464 129.616 81.464C132.07 81.464 133.99 82.232 135.376 83.768C136.763 85.304 137.456 87.4373 137.456 90.168ZM132.496 88.728C132.454 86.1253 131.536 84.824 129.744 84.824C128.87 84.824 128.187 85.144 127.696 85.784C127.227 86.424 126.939 87.48 126.832 88.952H132.496V88.728ZM27.08 137V114.824H40.296L39.752 118.568H32.328V124.456H38.792V128.2H32.328V137H27.08ZM56.2688 128.168C56.2688 128.872 56.2368 129.48 56.1728 129.992H45.6448C45.8154 131.421 46.2208 132.424 46.8608 133C47.5008 133.576 48.3861 133.864 49.5168 133.864C50.1994 133.864 50.8608 133.747 51.5008 133.512C52.1408 133.256 52.8341 132.872 53.5808 132.36L55.6608 135.176C53.6768 136.755 51.4688 137.544 49.0368 137.544C46.2848 137.544 44.1728 136.733 42.7008 135.112C41.2288 133.491 40.4928 131.315 40.4928 128.584C40.4928 126.856 40.8021 125.309 41.4208 123.944C42.0394 122.557 42.9461 121.469 44.1408 120.68C45.3354 119.869 46.7648 119.464 48.4288 119.464C50.8821 119.464 52.8021 120.232 54.1888 121.768C55.5754 123.304 56.2688 125.437 56.2688 128.168ZM51.3088 126.728C51.2661 124.125 50.3488 122.824 48.5568 122.824C47.6821 122.824 46.9994 123.144 46.5088 123.784C46.0394 124.424 45.7514 125.48 45.6448 126.952H51.3088V126.728ZM72.3005 132.072C72.3005 132.712 72.3858 133.181 72.5565 133.48C72.7485 133.779 73.0472 134.003 73.4525 134.152L72.3965 137.448C71.3512 137.363 70.4978 137.139 69.8365 136.776C69.1752 136.392 68.6632 135.795 68.3005 134.984C67.1912 136.691 65.4845 137.544 63.1805 137.544C61.4952 137.544 60.1512 137.053 59.1485 136.072C58.1458 135.091 57.6445 133.811 57.6445 132.232C57.6445 130.376 58.3272 128.957 59.6925 127.976C61.0578 126.995 63.0312 126.504 65.6125 126.504H67.3405V125.768C67.3405 124.765 67.1272 124.083 66.7005 123.72C66.2738 123.336 65.5272 123.144 64.4605 123.144C63.9058 123.144 63.2338 123.229 62.4445 123.4C61.6552 123.549 60.8445 123.763 60.0125 124.04L58.8605 120.712C59.9272 120.307 61.0152 119.997 62.1245 119.784C63.2552 119.571 64.3005 119.464 65.2605 119.464C67.6925 119.464 69.4738 119.965 70.6045 120.968C71.7352 121.971 72.3005 123.475 72.3005 125.48V132.072ZM64.6525 133.928C65.8045 133.928 66.7005 133.384 67.3405 132.296V129.288H66.0925C64.9405 129.288 64.0765 129.491 63.5005 129.896C62.9458 130.301 62.6685 130.931 62.6685 131.784C62.6685 132.467 62.8392 133 63.1805 133.384C63.5432 133.747 64.0338 133.928 64.6525 133.928ZM86.9838 136.2C86.3651 136.627 85.6398 136.957 84.8078 137.192C83.9971 137.427 83.1864 137.544 82.3758 137.544C78.6638 137.523 76.8078 135.475 76.8078 131.4V123.528H74.4078V120.008H76.8078V116.328L81.8638 115.752V120.008H85.7678L85.2238 123.528H81.8638V131.336C81.8638 132.125 81.9918 132.691 82.2478 133.032C82.5038 133.373 82.9091 133.544 83.4638 133.544C84.0398 133.544 84.6478 133.363 85.2878 133L86.9838 136.2ZM103.008 137H98.6235L98.3995 134.856C97.1622 136.648 95.4448 137.544 93.2475 137.544C91.6902 137.544 90.5062 137.075 89.6955 136.136C88.9062 135.197 88.5115 133.885 88.5115 132.2V120.008H93.5675V131.56C93.5675 132.392 93.6955 132.979 93.9515 133.32C94.2288 133.64 94.6448 133.8 95.1995 133.8C96.2662 133.8 97.1835 133.139 97.9515 131.816V120.008H103.008V137ZM116.2 119.528C116.819 119.528 117.384 119.603 117.896 119.752L117.096 124.648C116.456 124.499 115.944 124.424 115.56 124.424C114.557 124.424 113.789 124.776 113.256 125.48C112.744 126.163 112.339 127.197 112.04 128.584V137H106.984V120.008H111.4L111.816 123.304C112.2 122.131 112.776 121.213 113.544 120.552C114.333 119.869 115.219 119.528 116.2 119.528ZM133.675 128.168C133.675 128.872 133.643 129.48 133.579 129.992H123.051C123.222 131.421 123.627 132.424 124.267 133C124.907 133.576 125.792 133.864 126.923 133.864C127.606 133.864 128.267 133.747 128.907 133.512C129.547 133.256 130.24 132.872 130.987 132.36L133.067 135.176C131.083 136.755 128.875 137.544 126.443 137.544C123.691 137.544 121.579 136.733 120.107 135.112C118.635 133.491 117.899 131.315 117.899 128.584C117.899 126.856 118.208 125.309 118.827 123.944C119.446 122.557 120.352 121.469 121.547 120.68C122.742 119.869 124.171 119.464 125.835 119.464C128.288 119.464 130.208 120.232 131.595 121.768C132.982 123.304 133.675 125.437 133.675 128.168ZM128.715 126.728C128.672 124.125 127.755 122.824 125.963 122.824C125.088 122.824 124.406 123.144 123.915 123.784C123.446 124.424 123.158 125.48 123.051 126.952H128.715V126.728ZM142.499 119.464C143.715 119.464 144.857 119.645 145.923 120.008C146.99 120.371 147.929 120.883 148.739 121.544L146.883 124.392C145.497 123.517 144.099 123.08 142.691 123.08C142.03 123.08 141.518 123.197 141.155 123.432C140.814 123.645 140.643 123.955 140.643 124.36C140.643 124.68 140.718 124.947 140.867 125.16C141.038 125.352 141.369 125.555 141.859 125.768C142.35 125.981 143.107 126.237 144.131 126.536C145.902 127.048 147.214 127.72 148.067 128.552C148.942 129.363 149.379 130.493 149.379 131.944C149.379 133.096 149.049 134.099 148.387 134.952C147.726 135.784 146.819 136.424 145.667 136.872C144.515 137.32 143.235 137.544 141.827 137.544C140.398 137.544 139.065 137.32 137.827 136.872C136.611 136.424 135.577 135.805 134.723 135.016L137.187 132.264C138.617 133.373 140.121 133.928 141.699 133.928C142.467 133.928 143.065 133.789 143.491 133.512C143.939 133.235 144.163 132.84 144.163 132.328C144.163 131.923 144.078 131.603 143.907 131.368C143.737 131.133 143.406 130.92 142.915 130.728C142.425 130.515 141.646 130.259 140.579 129.96C138.894 129.469 137.635 128.787 136.803 127.912C135.971 127.037 135.555 125.949 135.555 124.648C135.555 123.667 135.833 122.792 136.387 122.024C136.963 121.235 137.774 120.616 138.819 120.168C139.886 119.699 141.113 119.464 142.499 119.464Z" fill="white"/>
<g clip-path="url(#clip0_1_191)">
<path d="M390.837 592.739C337.739 680.455 224.229 708.724 137.369 656.144C50.5094 603.564 22.9259 489.885 76.024 402.17C129.122 314.454 242.633 286.185 329.492 338.765C416.352 391.344 443.935 505.023 390.837 592.739Z" stroke="#CA61C3" stroke-width="24"/>
</g>
<rect x="40" y="181" width="167" height="73" rx="13" fill="#FFCC33"/>
<path d="M81.216 200.28C82.88 200.28 84.32 200.515 85.536 200.984C86.7733 201.453 87.8933 202.168 88.896 203.128L86.464 205.976C84.9493 204.739 83.328 204.12 81.6 204.12C80.6827 204.12 79.9573 204.312 79.424 204.696C78.8907 205.059 78.624 205.592 78.624 206.296C78.624 206.787 78.7413 207.192 78.976 207.512C79.2107 207.811 79.6267 208.099 80.224 208.376C80.8213 208.653 81.7173 208.984 82.912 209.368C85.1733 210.093 86.8373 210.989 87.904 212.056C88.9707 213.101 89.504 214.595 89.504 216.536C89.504 217.923 89.152 219.149 88.448 220.216C87.744 221.261 86.7307 222.083 85.408 222.68C84.0853 223.256 82.5173 223.544 80.704 223.544C78.8907 223.544 77.28 223.256 75.872 222.68C74.4853 222.104 73.2907 221.336 72.288 220.376L74.944 217.464C75.7973 218.189 76.672 218.733 77.568 219.096C78.4853 219.459 79.4773 219.64 80.544 219.64C81.632 219.64 82.4853 219.405 83.104 218.936C83.744 218.445 84.064 217.773 84.064 216.92C84.064 216.365 83.9467 215.907 83.712 215.544C83.4773 215.16 83.072 214.819 82.496 214.52C81.92 214.221 81.088 213.901 80 213.56C77.5467 212.813 75.7973 211.896 74.752 210.808C73.728 209.72 73.216 208.344 73.216 206.68C73.216 205.4 73.5573 204.28 74.24 203.32C74.9227 202.339 75.872 201.592 77.088 201.08C78.304 200.547 79.68 200.28 81.216 200.28ZM97.3525 206.008V223H92.2965V206.008H97.3525ZM94.7925 197.048C95.6672 197.048 96.3818 197.325 96.9365 197.88C97.5125 198.413 97.8005 199.096 97.8005 199.928C97.8005 200.76 97.5125 201.453 96.9365 202.008C96.3818 202.541 95.6672 202.808 94.7925 202.808C93.9178 202.808 93.2032 202.541 92.6485 202.008C92.0938 201.453 91.8165 200.76 91.8165 199.928C91.8165 199.096 92.0938 198.413 92.6485 197.88C93.2032 197.325 93.9178 197.048 94.7925 197.048ZM116.976 207C115.866 207.448 114.234 207.672 112.08 207.672C113.189 208.141 114 208.717 114.512 209.4C115.024 210.083 115.28 210.968 115.28 212.056C115.28 213.144 114.992 214.125 114.416 215C113.84 215.853 113.008 216.525 111.92 217.016C110.853 217.507 109.594 217.752 108.144 217.752C107.461 217.752 106.81 217.688 106.192 217.56C106.021 217.645 105.882 217.784 105.776 217.976C105.69 218.147 105.648 218.328 105.648 218.52C105.648 218.84 105.765 219.096 106 219.288C106.256 219.459 106.757 219.544 107.504 219.544H110.064C111.365 219.544 112.506 219.757 113.488 220.184C114.469 220.611 115.226 221.197 115.76 221.944C116.293 222.691 116.56 223.533 116.56 224.472C116.56 226.243 115.792 227.619 114.256 228.6C112.741 229.603 110.544 230.104 107.664 230.104C105.594 230.104 103.962 229.88 102.768 229.432C101.573 229.005 100.73 228.397 100.24 227.608C99.7704 226.819 99.5358 225.827 99.5358 224.632H104.08C104.08 225.144 104.176 225.549 104.368 225.848C104.581 226.147 104.954 226.371 105.488 226.52C106.021 226.669 106.789 226.744 107.792 226.744C109.178 226.744 110.138 226.573 110.672 226.232C111.205 225.912 111.472 225.443 111.472 224.824C111.472 224.312 111.269 223.907 110.864 223.608C110.458 223.309 109.85 223.16 109.04 223.16H106.576C104.826 223.16 103.514 222.851 102.64 222.232C101.786 221.592 101.36 220.781 101.36 219.8C101.36 219.181 101.541 218.584 101.904 218.008C102.266 217.411 102.757 216.92 103.376 216.536C102.309 215.96 101.53 215.288 101.04 214.52C100.57 213.731 100.336 212.781 100.336 211.672C100.336 209.773 101.018 208.269 102.384 207.16C103.749 206.029 105.552 205.464 107.792 205.464C109.498 205.507 110.938 205.336 112.112 204.952C113.306 204.568 114.533 204.003 115.792 203.256L116.976 207ZM107.92 208.792C107.13 208.792 106.501 209.048 106.032 209.56C105.584 210.051 105.36 210.733 105.36 211.608C105.36 212.525 105.584 213.24 106.032 213.752C106.501 214.243 107.13 214.488 107.92 214.488C108.752 214.488 109.381 214.243 109.808 213.752C110.256 213.261 110.48 212.525 110.48 211.544C110.48 209.709 109.626 208.792 107.92 208.792ZM128.905 205.464C130.377 205.464 131.529 205.912 132.361 206.808C133.193 207.704 133.609 208.963 133.609 210.584V223H128.553V211.448C128.553 210.595 128.414 210.008 128.137 209.688C127.881 209.347 127.486 209.176 126.953 209.176C125.929 209.176 124.947 209.912 124.009 211.384V223H118.953V206.008H123.369L123.721 208.024C124.446 207.171 125.225 206.531 126.057 206.104C126.91 205.677 127.859 205.464 128.905 205.464ZM162.103 215.64C162.103 217.155 161.773 218.509 161.111 219.704C160.471 220.899 159.501 221.837 158.199 222.52C156.898 223.203 155.309 223.544 153.431 223.544C150.615 223.544 148.471 222.829 146.999 221.4C145.527 219.971 144.791 218.051 144.791 215.64V200.824H150.039V215.416C150.039 216.845 150.306 217.912 150.839 218.616C151.394 219.299 152.258 219.64 153.431 219.64C154.626 219.64 155.49 219.299 156.023 218.616C156.578 217.912 156.855 216.845 156.855 215.416V200.824H162.103V215.64ZM175.459 205.464C177.592 205.464 179.182 206.253 180.227 207.832C181.272 209.411 181.795 211.619 181.795 214.456C181.795 216.205 181.518 217.773 180.963 219.16C180.43 220.525 179.651 221.603 178.627 222.392C177.603 223.16 176.408 223.544 175.043 223.544C173.336 223.544 171.96 222.957 170.915 221.784V229.56L165.859 230.104V206.008H170.307L170.563 207.896C171.224 207.064 171.982 206.456 172.835 206.072C173.688 205.667 174.563 205.464 175.459 205.464ZM173.507 219.832C175.534 219.832 176.547 218.061 176.547 214.52C176.547 212.515 176.323 211.128 175.875 210.36C175.427 209.571 174.755 209.176 173.859 209.176C173.283 209.176 172.739 209.347 172.227 209.688C171.736 210.029 171.299 210.52 170.915 211.16V218.328C171.598 219.331 172.462 219.832 173.507 219.832Z" fill="black"/>
<defs>
<clipPath id="clip0_1_191">
<rect width="132.68" height="164.206" fill="white" transform="translate(168.034 227) rotate(31.1883)"/>
</clipPath>
</defs>
</svg>
